<svg xmlns="http://www.w3.org/2000/svg" height="20" viewBox="0 0 20 20" width="20" fill="#000" class="main-footer__social__icon"><path d="m19.960835 3.9053673c-.7374693.31906496-1.5249365.53642283-2.3540686.63566925.8449648-.50115343 1.4949377-1.29102373 1.8024249-2.23345466-.792467.45522121-1.6707637.78658943-2.6057248.97113857-.7466355-.78658943-1.8107579-1.27872046-2.9923753-1.27872046-2.2640723 0-4.09982917 1.8069411-4.09982917 4.03301379 0 .31988517.03749844.62746706.10582892.92192546-3.40819132-.15830215-6.42889879-1.76921105-8.45048123-4.20443943-.3558185.59219767-.55497687 1.2803609-.55497687 2.0300405 0 1.40257343.72496979 2.63536166 1.82325736 3.3596145-.67247198-.02132568-1.30494562-.20341416-1.85658931-.50525453v.05003332c0 1.95622085 1.41077456 3.58763519 3.28819633 3.95919409-.34415233.0910443-.70747052.1402574-1.079955.1402574-.26165577 0-.51247865-.0246066-.76330153-.0705388.52581142 1.6018865 2.03741511 2.7698775 3.83650681 2.8026862-1.39994167 1.0818681-3.17403441 1.7265597-5.08478813 1.7265597-.32498646 0-.64913962-.018865-.97495938-.0549546 1.82409066 1.1433844 3.97316778 1.8118624 6.29723762 1.8118624 7.54468568 0 11.66534728-6.148357 11.66534728-11.47157431 0-.17142564 0-.34449172-.0124995-.51673758.8008-.56513046 1.4999375-1.27954068 2.0499146-2.08991644z" fill-rule="evenodd"/></svg>