<svg xmlns="http://www.w3.org/2000/svg" height="24" viewBox="0 0 24 24" width="24" class="button__icon button__icon--pre">
    <g fill="none" fill-rule="evenodd" transform="translate(3.25 5)">
        <path stroke="currentColor" d="m2.5638852.25h12.3722296c.8915187 0 1.214805.09282561 1.5407309.2671327.3259259.1743071.5817145.43009567.7560216.7560216.1743071.32592592.2671327.64921216.2671327 1.5407309v8.3722296c0 .8915187-.0928256 1.214805-.2671327 1.5407309s-.4300957.5817145-.7560216.7560216-.6492122.2671327-1.5407309.2671327h-12.3722296c-.89151874 0-1.21480498-.0928256-1.5407309-.2671327-.32592593-.1743071-.5817145-.4300957-.7560216-.7560216-.17430709-.3259259-.2671327-.6492122-.2671327-1.5407309v-8.3722296c0-.89151874.09282561-1.21480498.2671327-1.5407309.1743071-.32592593.43009567-.5817145.7560216-.7560216.32592592-.17430709.64921216-.2671327 1.5407309-.2671327z" stroke-linejoin="round" stroke-width="1.5"/>
        <g fill="currentColor">
            <path d="m7.25 0h3v14h-3z" opacity=".5"/>
            <path d="m2.75 0h3v14h-3z" opacity=".5"/>
            <path d="m11.75 0h3v14h-3z" opacity=".5"/>
        </g>
    </g>
</svg>