<svg xmlns="http://www.w3.org/2000/svg" height="20" viewBox="0 0 20 20" width="20" fill="#000" class="main-footer__social__icon"><path d="m19.5824595 5.16176628c-.2357598-.84611328-.8958725-1.50728401-1.740632-1.74342164-1.5588993-.41833284-7.8328439-.41833284-7.8328439-.41833284s-6.25810547-.00833788-7.83284389.41833284c-.84475941.23613763-1.5048722.89730836-1.74063198 1.74342164-.2955068 1.5985628-.44119306 3.22129109-.43533806 4.84701272-.0047141 1.6195871.14096739 3.2361126.43533806 4.8286434.23575978.8461133.89587257 1.507284 1.74063198 1.7434216 1.55723206.419156 7.83284389.419156 7.83284389.419156s6.2572719 0 7.8328439-.419156c.8447595-.2361376 1.5048722-.8973083 1.740632-1.7434216.2882207-1.5931077.427762-3.2096284.416818-4.8286434.0120848-1.62514733-.1274611-3.24787094-.416818-4.84701272zm-11.57586956 7.84539742v-6.005954l5.22189596 3.0075693z" fill-rule="evenodd"/></svg>