<svg xmlns="http://www.w3.org/2000/svg" height="20" viewBox="0 0 20 20" width="20" fill="#000" class="main-footer__social__icon"><path d="m10 1c-2.445 0-2.75025.01125-3.71025.054-.9585.045-1.611.19575-2.18475.4185-.59175.2295-1.09425.53775-1.5945 1.038s-.80925 1.002-1.038 1.5945c-.22275.57375-.37425 1.22625-.4185 2.18475-.045.96-.054 1.26525-.054 3.71025s.01125 2.75025.054 3.71025c.045.95775.19575 1.611.4185 2.18475.2295.591.53775 1.09425 1.038 1.5945.50025.4995 1.002.80925 1.5945 1.038.5745.222 1.227.37425 2.18475.4185.96.045 1.26525.054 3.71025.054s2.75025-.01125 3.71025-.054c.95775-.045 1.611-.1965 2.18475-.4185.591-.2295 1.09425-.5385 1.5945-1.038.4995-.50025.80925-1.00125 1.038-1.5945.222-.57375.37425-1.227.4185-2.18475.045-.96.054-1.26525.054-3.71025s-.01125-2.75025-.054-3.71025c-.045-.95775-.1965-1.61175-.4185-2.18475-.2295-.59175-.5385-1.09425-1.038-1.5945-.50025-.50025-1.00125-.80925-1.5945-1.038-.57375-.22275-1.227-.37425-2.18475-.4185-.96-.045-1.26525-.054-3.71025-.054zm3.6375 1.67325c.8775.04125 1.35375.18675 1.67025.31125.4215.16275.72.35775 1.0365.672.31425.315.50925.61425.672 1.03575.123.3165.27.79275.30975 1.67025.04275.9495.0525 1.2345.0525 3.6375s-.01125 2.68875-.0555 3.6375c-.04575.8775-.192 1.35375-.31575 1.67025-.168.4215-.35925.72-.67425 1.0365-.31425.31425-.618.50925-1.035.672-.315.123-.79875.27-1.67625.30975-.9555.04275-1.23675.0525-3.64425.0525-2.40825 0-2.6895-.01125-3.64425-.0555-.87825-.04575-1.362-.192-1.677-.31575-.42675-.168-.72-.35925-1.03425-.67425-.31575-.31425-.5175-.618-.675-1.035-.12375-.315-.26925-.79875-.315-1.67625-.03375-.945-.04575-1.23675-.04575-3.633 0-2.397.012-2.6895.04575-3.64575.04575-.8775.19125-1.3605.315-1.6755.1575-.4275.35925-.72.675-1.03575.31425-.31425.6075-.51675 1.03425-.6735.315-.1245.78825-.27075 1.66575-.31575.95625-.03375 1.2375-.045 3.64425-.045l.03375.0225c2.40225 0 2.68875.012 3.6375.05325zm-3.6375 2.70525c-2.55375 0-4.6215 2.07-4.6215 4.6215 0 2.55375 2.07 4.6215 4.6215 4.6215 2.55375 0 4.6215-2.07 4.6215-4.6215 0-2.55375-2.07-4.6215-4.6215-4.6215zm0 7.6215c-1.6575 0-3-1.3425-3-3s1.3425-3 3-3 3 1.3425 3 3-1.3425 3-3 3zm5.8845-7.80375c0 .59625-.4845 1.08-1.08 1.08-.59625 0-1.08-.4845-1.08-1.08s.4845-1.07925087 1.08-1.07925087c.59475-.00074913 1.08.48375087 1.08 1.07925087z"/></svg>